<svg width="506" height="199" viewBox="0 0 506 199" fill="none" xmlns="http://www.w3.org/2000/svg">
<path d="M52.54 182C43.1212 182 34.9292 179.708 27.964 175.123C20.9989 170.459 15.5771 164.254 11.6988 156.507C7.89959 148.681 6 140.026 6 130.54C6 121.054 7.89959 112.438 11.6988 104.691C15.5771 96.8657 20.9989 90.6209 27.964 85.9571C34.9292 81.2933 43.1212 78.9614 52.54 78.9614C58.7928 78.9614 64.3333 79.9495 69.1614 81.9257C73.9896 83.8229 77.9075 86.1152 80.9151 88.8029C83.9228 91.4114 85.7433 93.8224 86.3765 96.0357V16H122.469V179.154H86.7327V163.384C85.2288 166.309 82.7752 169.234 79.3717 172.159C75.9683 175.004 71.9712 177.336 67.3806 179.154C62.7899 181.051 57.843 182 52.54 182ZM63.5814 153.661C67.9346 153.661 71.8129 152.673 75.2164 150.697C78.699 148.721 81.4296 145.994 83.4084 142.516C85.3871 138.959 86.3765 134.967 86.3765 130.54C86.3765 126.113 85.3871 122.161 83.4084 118.683C81.4296 115.126 78.699 112.359 75.2164 110.383C71.8129 108.328 67.9346 107.3 63.5814 107.3C59.3864 107.3 55.5873 108.328 52.1838 110.383C48.8595 112.359 46.208 115.126 44.2293 118.683C42.3297 122.161 41.3799 126.113 41.3799 130.54C41.3799 134.967 42.3297 138.959 44.2293 142.516C46.208 145.994 48.8595 148.721 52.1838 150.697C55.5873 152.673 59.3864 153.661 63.5814 153.661Z" fill="#F8FAFC"/>
<path d="M153.122 138.129C153.359 141.607 154.467 144.69 156.446 147.377C158.425 150.065 161.156 152.199 164.638 153.78C168.2 155.282 172.395 156.033 177.223 156.033C181.814 156.033 185.929 155.559 189.57 154.61C193.29 153.661 196.496 152.476 199.187 151.053C201.957 149.63 204.094 148.168 205.598 146.666L219.608 168.957C217.629 171.091 214.819 173.186 211.178 175.241C207.616 177.218 202.907 178.838 197.05 180.103C191.193 181.368 183.792 182 174.848 182C164.084 182 154.507 179.984 146.117 175.953C137.727 171.921 131.118 165.993 126.29 158.167C121.462 150.341 119.048 140.777 119.048 129.473C119.048 119.987 121.106 111.45 125.222 103.861C129.417 96.1938 135.472 90.1467 143.387 85.72C151.301 81.2143 160.839 78.9614 171.999 78.9614C182.605 78.9614 191.787 80.8981 199.543 84.7714C207.379 88.6448 213.394 94.4152 217.589 102.083C221.863 109.671 224 119.157 224 130.54C224 131.172 223.961 132.437 223.882 134.334C223.882 136.231 223.803 137.496 223.644 138.129H153.122ZM190.045 119.276C189.966 116.746 189.293 114.256 188.027 111.806C186.761 109.276 184.861 107.221 182.328 105.64C179.795 103.98 176.55 103.15 172.593 103.15C168.635 103.15 165.271 103.94 162.501 105.521C159.81 107.023 157.752 109 156.327 111.45C154.903 113.9 154.111 116.509 153.953 119.276H190.045Z" fill="#F8FAFC"/>
<path d="M214.87 81.8071H253.455L276.963 146.429L300.589 81.8071H338.937L298.096 179.154H255.83L214.87 81.8071Z" fill="#F8FAFC"/>
<path d="M439.704 94.9686L499.66 179.154H439.467L409.311 133.386L380.936 179.154H325.491L380.936 94.9686L330.478 22.64H389.128L411.21 59.6343L433.174 22.64H489.094L439.704 94.9686Z" fill="#F8FAFC"/>
</svg>
